<svg width="150" height="100" viewBox="0 0 499 285" fill="none" xmlns="http://www.w3.org/2000/svg">
	<g clip-path="url(#clip0_409_243)">
		<path d="M371.133 171.617L373.245 121.087L322.472 0L217.138 146.352L116.068 86.5723L263.645 22.4274L263.468 22.0243H209.326L67.7214 83.5744L223.284 175.584L317.351 44.8885L340.633 100.419L319.24 106.415L287.303 138.232L349.213 120.88L370.583 171.847L371.133 171.617Z" fill="black"/>
		<path d="M472.273 217.992H462.987V235.754H471.141V226.114H473.165C485.13 226.114 490.784 233.11 490.784 242.36C490.784 251.61 485.128 258.724 473.165 258.724H471.141V249.529H462.987V266.907H472.273C490.843 266.907 498.997 255.641 498.997 242.36C498.997 229.079 490.843 217.989 472.273 217.989V217.992Z" fill="black"/>
		<path d="M425.504 218.111H452.348V225.82H433.658V238.331H443.008V245.505H433.658V259.143H452.348V266.909H425.504V218.111Z" fill="black"/>
		<path d="M397.385 225.76H386.671V217.994H416.254V225.76H405.54V266.912H397.385V225.76Z" fill="black"/>
		<path d="M349.317 218.051H360.151C375.567 218.051 381.222 227.003 381.222 236.729C381.222 246.454 375.331 255.406 361.043 255.406H357.471V266.969H349.317V218.051ZM361.399 247.521C369.138 247.521 373.245 243.133 373.245 236.729C373.245 230.324 369.018 225.996 361.399 225.996H357.471V247.518H361.399V247.521Z" fill="black"/>
		<path d="M306.307 259.735L303.627 266.909H295.055L313.984 218.111H322.555L341.007 266.909H332.614L329.996 259.735H310.831L313.402 252.798H327.438L318.272 227.717L308.927 252.798" fill="black"/>
		<path d="M265.025 217.893H255.74V235.656H263.894V226.016H265.917C277.883 226.016 283.536 233.012 283.536 242.262C283.536 251.511 277.88 258.626 265.917 258.626H263.894V249.431H255.74V266.808H265.025C283.596 266.808 291.75 255.543 291.75 242.262C291.75 228.981 283.596 217.891 265.025 217.891V217.893Z" fill="black"/>
		<path d="M202.186 285H193.614L220.326 218.111H228.898L247.349 266.909H238.956L236.339 259.735H217.174L219.745 252.798H233.781L224.615 227.717L215.27 252.798L202.189 285H202.186Z" fill="black"/>
		<path d="M167.18 218.111H194.024V225.82H175.334V238.331H184.684V245.505H175.334V259.143H194.024V266.912H167.18V218.113V218.111Z" fill="black"/>
		<path d="M130.005 217.992H120.72V235.754H128.874V226.114H130.897C142.863 226.114 148.516 233.11 148.516 242.36C148.516 251.61 142.86 258.724 130.897 258.724H128.874V249.529H120.72V266.907H130.005C148.576 266.907 156.73 255.641 156.73 242.36C156.73 229.079 148.576 217.989 130.005 217.989V217.992Z" fill="black"/>
		<path d="M89.74 217.552V225.903C97.038 227.973 102.113 234.589 102.113 242.422C102.113 250.255 97.038 256.913 89.74 258.996V267.351C101.908 265.079 110.269 254.45 110.269 242.422C110.269 230.394 101.91 219.824 89.74 217.552V217.552Z" fill="black"/>
		<path d="M79.9047 258.986C72.5911 256.892 67.532 250.243 67.532 242.42C67.532 234.597 72.5911 227.988 79.9047 225.908V217.555C67.7162 219.842 59.3752 230.456 59.3752 242.417C59.3752 254.378 67.7162 265.049 79.9047 267.338V258.983V258.986Z" fill="black"/>
		<path d="M41.3235 249.532C38.7369 255.403 32.7516 259.675 25.4769 259.675C15.5378 259.675 8.15677 251.672 8.15677 242.479C8.15677 233.286 15.5378 225.225 25.4769 225.225C32.8113 225.225 38.9444 229.704 41.4817 235.754H50.121C47.2516 225.254 37.2918 217.1 25.4769 217.1C11.1325 217.1 0 228.9 0 242.479C0 256.057 11.1299 267.798 25.4769 267.798C37.1465 267.798 47.0674 259.869 50.0225 249.532H41.3235Z" fill="black"/>
	</g>
	<defs>
		<clipPath id="clip0_409_243">
			<rect width="499" height="285" fill="black"/>
		</clipPath>
	</defs>
</svg>